<svg width="140px" height="32px" viewBox="0 0 140 32" version="1.1" xmlns="http://www.w3.org/2000/svg" xmlns:xlink="http://www.w3.org/1999/xlink">
    <!-- Generator: Sketch 39.1 (31720) - http://www.bohemiancoding.com/sketch -->
    <desc></desc>
    <defs></defs>
    <g id="Page-1" stroke="none" stroke-width="1" fill="none" fill-rule="evenodd">
        <g id="Group-2" fill="#1C1D1D">
            <g id="Format_RGB_Black_Vector">
                <g id="Group">
                    <path d="M46.9601019,31.5515924L52.5929172 31.5515924 52.5929172 12.2292994 58.9248408 12.2292994 58.9248408 7.84713376 46.9601019 7.84713376z"></path> 
                    <path d="M119.467618,15.4089172 C119.56749,10.1503185 116.131873,7.33757962 110.618904,7.33757962 C105.16586,7.33757962 101.150981,9.94649682 100.891312,14.9605096 L106.564076,14.9605096 C106.643975,12.922293 108.201987,11.9235669 110.399185,11.9235669 C112.616357,11.9235669 114.154395,12.8815287 114.154395,15.3273885 L114.154395,17.4471338 L107.662675,17.4471338 C103.128459,17.4471338 100.092331,20.9528662 100.092331,24.743949 C100.092331,28.9834395 103.208357,31.9796178 107.363057,31.9796178 C110.878573,31.9796178 113.015847,30.3694268 114.314191,27.7808917 L114.493962,27.7808917 L114.533911,31.5719745 L123.462522,31.5719745 L123.462522,26.8636943 L119.467618,26.8636943 L119.467618,15.4089172 L119.467618,15.4089172 Z M114.154395,22.1350318 C114.154395,25.0904459 112.256815,27.4751592 109.36051,27.4751592 C107.363057,27.4751592 105.864968,26.7414013 105.864968,25.355414 L105.864968,23.3171975 C105.864968,22.4407643 106.284433,21.9312102 107.103389,21.8089172 C107.163312,21.8089172 107.223236,21.788535 107.283159,21.788535 L114.154395,21.788535 L114.154395,22.1350318 L114.154395,22.1350318 Z" id="Shape"></path>
                    <path d="M31.8593631,7.33757962 C24.9481783,7.33757962 21.0531465,12.2700637 21.0531465,19.6484076 C21.0531465,27.0267516 24.9481783,31.9592357 31.8593631,31.9592357 C38.7705478,31.9592357 42.6655796,27.0267516 42.6655796,19.6484076 C42.6655796,12.2700637 38.7705478,7.33757962 31.8593631,7.33757962 L31.8593631,7.33757962 Z M36.8729682,23.0522293 C36.8729682,25.9057325 34.6757707,27.4751592 31.8593631,27.4751592 C29.0629299,27.4751592 26.845758,25.8649682 26.845758,23.0522293 L26.845758,16.2242038 C26.845758,13.411465 29.0429554,11.8012739 31.8593631,11.8012739 C34.6557962,11.8012739 36.8729682,13.3707006 36.8729682,16.2242038 L36.8729682,23.0522293 L36.8729682,23.0522293 Z" id="Shape"></path>
                    <path d="M63.2393376,31.5515924L68.8721529 31.5515924 68.8721529 12.2292994 76.8419873 12.2292994 76.8419873 31.5515924 82.4748025 31.5515924 82.4748025 12.2292994 90.1250446 12.2292994 90.1250446 31.5515924 95.7578599 31.5515924 95.7578599 7.84713376 63.2393376 7.84713376z"></path>
                    <path d="M0.179770701,31.5515924L6.05228025 31.5515924 6.05228025 17.3452229 17.7773248 17.3452229 17.7773248 12.2292994 6.05228025 12.2292994 6.05228025 5.13630573 17.7773248 5.13630573 17.7773248 0.0203821656 0.179770701 0.0203821656"></path>
                    <path d="M139.66186,12.2292994L139.66186 7.84713376 134.029045 7.84713376 134.029045 0.0203821656 128.396229 0.0203821656 128.396229 7.84713376 123.782115 7.84713376 123.782115 12.2292994 128.396229 12.2292994 128.396229 31.5515924 139.66186 31.5515924 139.66186 26.8433121 134.029045 26.8433121 134.029045 12.2292994"></path>
                </g>
            </g>
        </g>
    </g>
</svg>

